<svg width="99" height="72" viewBox="0 0 99 72" fill="none" xmlns="http://www.w3.org/2000/svg">
<ellipse cx="2.80493" cy="2.81268" rx="2.5" ry="2.62469" fill="#706FE5"/>
<ellipse cx="2.80493" cy="46.5971" rx="2.5" ry="2.62469" fill="#706FE5"/>
<ellipse cx="40.1951" cy="2.81268" rx="2.5" ry="2.62469" fill="#706FE5"/>
<ellipse cx="40.1951" cy="46.5971" rx="2.5" ry="2.62469" fill="#706FE5"/>
<ellipse cx="77.585" cy="2.81268" rx="2.5" ry="2.62469" fill="#706FE5"/>
<ellipse cx="77.585" cy="46.5971" rx="2.5" ry="2.62469" fill="#706FE5"/>
<ellipse cx="2.80493" cy="24.7048" rx="2.5" ry="2.62469" fill="#706FE5"/>
<ellipse cx="2.80493" cy="68.489" rx="2.5" ry="2.62469" fill="#706FE5"/>
<ellipse cx="40.1951" cy="24.7048" rx="2.5" ry="2.62469" fill="#706FE5"/>
<ellipse cx="40.1951" cy="68.489" rx="2.5" ry="2.62469" fill="#706FE5"/>
<ellipse cx="77.585" cy="24.7048" rx="2.5" ry="2.62469" fill="#706FE5"/>
<ellipse cx="77.585" cy="68.489" rx="2.5" ry="2.62469" fill="#706FE5"/>
<ellipse cx="21.5" cy="2.81268" rx="2.5" ry="2.62469" fill="#706FE5"/>
<ellipse cx="21.5" cy="46.5971" rx="2.5" ry="2.62469" fill="#706FE5"/>
<ellipse cx="58.8899" cy="2.81268" rx="2.5" ry="2.62469" fill="#706FE5"/>
<ellipse cx="58.8899" cy="46.5971" rx="2.5" ry="2.62469" fill="#706FE5"/>
<ellipse cx="96.28" cy="2.81268" rx="2.5" ry="2.62469" fill="#706FE5"/>
<ellipse cx="96.28" cy="46.5971" rx="2.5" ry="2.62469" fill="#706FE5"/>
<ellipse cx="21.5" cy="24.7048" rx="2.5" ry="2.62469" fill="#706FE5"/>
<ellipse cx="21.5" cy="68.489" rx="2.5" ry="2.62469" fill="#706FE5"/>
<ellipse cx="58.8899" cy="24.7048" rx="2.5" ry="2.62469" fill="#706FE5"/>
<ellipse cx="58.8899" cy="68.489" rx="2.5" ry="2.62469" fill="#706FE5"/>
<ellipse cx="96.28" cy="24.7048" rx="2.5" ry="2.62469" fill="#706FE5"/>
<ellipse cx="96.28" cy="68.489" rx="2.5" ry="2.62469" fill="#706FE5"/>
</svg>
